<svg id="visual" viewBox="0 0 960 350" width="960" height="350" xmlns="http://www.w3.org/2000/svg" xmlns:xlink="http://www.w3.org/1999/xlink" version="1.1"><rect x="0" y="0" width="960" height="350" fill="#fbfdf2"></rect><path d="M0 118L17.8 118.5C35.7 119 71.3 120 106.8 120.5C142.3 121 177.7 121 213.2 124.2C248.7 127.3 284.3 133.7 320 136.7C355.7 139.7 391.3 139.3 426.8 135.8C462.3 132.3 497.7 125.7 533.2 123.5C568.7 121.3 604.3 123.7 640 128.2C675.7 132.7 711.3 139.3 746.8 139.8C782.3 140.3 817.7 134.7 853.2 130C888.7 125.3 924.3 121.7 942.2 119.8L960 118L960 0L942.2 0C924.3 0 888.7 0 853.2 0C817.7 0 782.3 0 746.8 0C711.3 0 675.7 0 640 0C604.3 0 568.7 0 533.2 0C497.7 0 462.3 0 426.8 0C391.3 0 355.7 0 320 0C284.3 0 248.7 0 213.2 0C177.7 0 142.3 0 106.8 0C71.3 0 35.7 0 17.8 0L0 0Z" fill="#6ac076"></path><path d="M0 105L17.8 104.8C35.7 104.7 71.3 104.3 106.8 104C142.3 103.7 177.7 103.3 213.2 103.7C248.7 104 284.3 105 320 106.8C355.7 108.7 391.3 111.3 426.8 112.3C462.3 113.3 497.7 112.7 533.2 114.2C568.7 115.7 604.3 119.3 640 119C675.7 118.7 711.3 114.3 746.8 113C782.3 111.7 817.7 113.3 853.2 115.3C888.7 117.3 924.3 119.7 942.2 120.8L960 122L960 0L942.2 0C924.3 0 888.7 0 853.2 0C817.7 0 782.3 0 746.8 0C711.3 0 675.7 0 640 0C604.3 0 568.7 0 533.2 0C497.7 0 462.3 0 426.8 0C391.3 0 355.7 0 320 0C284.3 0 248.7 0 213.2 0C177.7 0 142.3 0 106.8 0C71.3 0 35.7 0 17.8 0L0 0Z" fill="#5aae6f"></path><path d="M0 108L17.8 103.5C35.7 99 71.3 90 106.8 89.2C142.3 88.3 177.7 95.7 213.2 96C248.7 96.3 284.3 89.7 320 88.3C355.7 87 391.3 91 426.8 94.3C462.3 97.7 497.7 100.3 533.2 99.3C568.7 98.3 604.3 93.7 640 90.8C675.7 88 711.3 87 746.8 88.7C782.3 90.3 817.7 94.7 853.2 94.8C888.7 95 924.3 91 942.2 89L960 87L960 0L942.2 0C924.3 0 888.7 0 853.2 0C817.7 0 782.3 0 746.8 0C711.3 0 675.7 0 640 0C604.3 0 568.7 0 533.2 0C497.7 0 462.3 0 426.8 0C391.3 0 355.7 0 320 0C284.3 0 248.7 0 213.2 0C177.7 0 142.3 0 106.8 0C71.3 0 35.7 0 17.8 0L0 0Z" fill="#4c9c68"></path><path d="M0 72L17.8 70.8C35.7 69.7 71.3 67.3 106.8 67C142.3 66.7 177.7 68.3 213.2 72.3C248.7 76.3 284.3 82.7 320 82.7C355.7 82.7 391.3 76.3 426.8 74.8C462.3 73.3 497.7 76.7 533.2 78.2C568.7 79.7 604.3 79.3 640 78.5C675.7 77.7 711.3 76.3 746.8 78.3C782.3 80.3 817.7 85.7 853.2 86.5C888.7 87.3 924.3 83.7 942.2 81.8L960 80L960 0L942.2 0C924.3 0 888.7 0 853.2 0C817.7 0 782.3 0 746.8 0C711.3 0 675.7 0 640 0C604.3 0 568.7 0 533.2 0C497.7 0 462.3 0 426.8 0C391.3 0 355.7 0 320 0C284.3 0 248.7 0 213.2 0C177.7 0 142.3 0 106.8 0C71.3 0 35.7 0 17.8 0L0 0Z" fill="#3f8b60"></path><path d="M0 69L17.8 65.5C35.7 62 71.3 55 106.8 51.3C142.3 47.7 177.7 47.3 213.2 50.3C248.7 53.3 284.3 59.7 320 63.2C355.7 66.7 391.3 67.3 426.8 65.2C462.3 63 497.7 58 533.2 55C568.7 52 604.3 51 640 53.5C675.7 56 711.3 62 746.8 64.5C782.3 67 817.7 66 853.2 64C888.7 62 924.3 59 942.2 57.5L960 56L960 0L942.2 0C924.3 0 888.7 0 853.2 0C817.7 0 782.3 0 746.8 0C711.3 0 675.7 0 640 0C604.3 0 568.7 0 533.2 0C497.7 0 462.3 0 426.8 0C391.3 0 355.7 0 320 0C284.3 0 248.7 0 213.2 0C177.7 0 142.3 0 106.8 0C71.3 0 35.7 0 17.8 0L0 0Z" fill="#347a58"></path><path d="M0 41L17.8 39.7C35.7 38.3 71.3 35.7 106.8 36.2C142.3 36.7 177.7 40.3 213.2 40.2C248.7 40 284.3 36 320 34.8C355.7 33.7 391.3 35.3 426.8 37.3C462.3 39.3 497.7 41.7 533.2 42.7C568.7 43.7 604.3 43.3 640 43.2C675.7 43 711.3 43 746.8 40.8C782.3 38.7 817.7 34.3 853.2 33.2C888.7 32 924.3 34 942.2 35L960 36L960 0L942.2 0C924.3 0 888.7 0 853.2 0C817.7 0 782.3 0 746.8 0C711.3 0 675.7 0 640 0C604.3 0 568.7 0 533.2 0C497.7 0 462.3 0 426.8 0C391.3 0 355.7 0 320 0C284.3 0 248.7 0 213.2 0C177.7 0 142.3 0 106.8 0C71.3 0 35.7 0 17.8 0L0 0Z" fill="#2b694f"></path><path d="M0 14L17.8 14.5C35.7 15 71.3 16 106.8 17.5C142.3 19 177.7 21 213.2 23.2C248.7 25.3 284.3 27.7 320 28.5C355.7 29.3 391.3 28.7 426.8 27.2C462.3 25.7 497.7 23.3 533.2 22.5C568.7 21.7 604.3 22.3 640 21.3C675.7 20.3 711.3 17.7 746.8 18.2C782.3 18.7 817.7 22.3 853.2 24.5C888.7 26.7 924.3 27.3 942.2 27.7L960 28L960 0L942.2 0C924.3 0 888.7 0 853.2 0C817.7 0 782.3 0 746.8 0C711.3 0 675.7 0 640 0C604.3 0 568.7 0 533.2 0C497.7 0 462.3 0 426.8 0C391.3 0 355.7 0 320 0C284.3 0 248.7 0 213.2 0C177.7 0 142.3 0 106.8 0C71.3 0 35.7 0 17.8 0L0 0Z" fill="#235945"></path></svg>