<svg id="visual" viewBox="0 0 960 350" width="960" height="350" xmlns="http://www.w3.org/2000/svg" xmlns:xlink="http://www.w3.org/1999/xlink" version="1.1"><rect x="0" y="0" width="960" height="350" fill="#fbfdf2"></rect><path d="M0 129L17.8 131C35.7 133 71.3 137 106.8 138.5C142.3 140 177.7 139 213.2 139.2C248.7 139.3 284.3 140.7 320 139.2C355.7 137.7 391.3 133.3 426.8 131.5C462.3 129.7 497.7 130.3 533.2 129C568.7 127.7 604.3 124.3 640 126.5C675.7 128.7 711.3 136.3 746.8 135.7C782.3 135 817.7 126 853.2 123.3C888.7 120.7 924.3 124.3 942.2 126.2L960 128L960 0L942.2 0C924.3 0 888.7 0 853.2 0C817.7 0 782.3 0 746.8 0C711.3 0 675.7 0 640 0C604.3 0 568.7 0 533.2 0C497.7 0 462.3 0 426.8 0C391.3 0 355.7 0 320 0C284.3 0 248.7 0 213.2 0C177.7 0 142.3 0 106.8 0C71.3 0 35.7 0 17.8 0L0 0Z" fill="#6ac076"></path><path d="M0 99L17.8 103C35.7 107 71.3 115 106.8 120.5C142.3 126 177.7 129 213.2 125.5C248.7 122 284.3 112 320 107.8C355.7 103.7 391.3 105.3 426.8 105.3C462.3 105.3 497.7 103.7 533.2 103.2C568.7 102.7 604.3 103.3 640 102.5C675.7 101.7 711.3 99.3 746.8 102.2C782.3 105 817.7 113 853.2 116.8C888.7 120.7 924.3 120.3 942.2 120.2L960 120L960 0L942.2 0C924.3 0 888.7 0 853.2 0C817.7 0 782.3 0 746.8 0C711.3 0 675.7 0 640 0C604.3 0 568.7 0 533.2 0C497.7 0 462.3 0 426.8 0C391.3 0 355.7 0 320 0C284.3 0 248.7 0 213.2 0C177.7 0 142.3 0 106.8 0C71.3 0 35.7 0 17.8 0L0 0Z" fill="#5aae6f"></path><path d="M0 105L17.8 101.5C35.7 98 71.3 91 106.8 89C142.3 87 177.7 90 213.2 92.2C248.7 94.3 284.3 95.7 320 98.7C355.7 101.7 391.3 106.3 426.8 107.2C462.3 108 497.7 105 533.2 101.5C568.7 98 604.3 94 640 94C675.7 94 711.3 98 746.8 96.7C782.3 95.3 817.7 88.7 853.2 90.5C888.7 92.3 924.3 102.7 942.2 107.8L960 113L960 0L942.2 0C924.3 0 888.7 0 853.2 0C817.7 0 782.3 0 746.8 0C711.3 0 675.7 0 640 0C604.3 0 568.7 0 533.2 0C497.7 0 462.3 0 426.8 0C391.3 0 355.7 0 320 0C284.3 0 248.7 0 213.2 0C177.7 0 142.3 0 106.8 0C71.3 0 35.7 0 17.8 0L0 0Z" fill="#4c9c68"></path><path d="M0 75L17.8 72.7C35.7 70.3 71.3 65.7 106.8 66.3C142.3 67 177.7 73 213.2 73.2C248.7 73.3 284.3 67.7 320 65.5C355.7 63.3 391.3 64.7 426.8 66.5C462.3 68.3 497.7 70.7 533.2 74.3C568.7 78 604.3 83 640 81.7C675.7 80.3 711.3 72.7 746.8 71.3C782.3 70 817.7 75 853.2 76C888.7 77 924.3 74 942.2 72.5L960 71L960 0L942.2 0C924.3 0 888.7 0 853.2 0C817.7 0 782.3 0 746.8 0C711.3 0 675.7 0 640 0C604.3 0 568.7 0 533.2 0C497.7 0 462.3 0 426.8 0C391.3 0 355.7 0 320 0C284.3 0 248.7 0 213.2 0C177.7 0 142.3 0 106.8 0C71.3 0 35.7 0 17.8 0L0 0Z" fill="#3f8b60"></path><path d="M0 52L17.8 51.3C35.7 50.7 71.3 49.3 106.8 50.2C142.3 51 177.7 54 213.2 56.5C248.7 59 284.3 61 320 61.5C355.7 62 391.3 61 426.8 58C462.3 55 497.7 50 533.2 50.5C568.7 51 604.3 57 640 59.7C675.7 62.3 711.3 61.7 746.8 59C782.3 56.3 817.7 51.7 853.2 49C888.7 46.3 924.3 45.7 942.2 45.3L960 45L960 0L942.2 0C924.3 0 888.7 0 853.2 0C817.7 0 782.3 0 746.8 0C711.3 0 675.7 0 640 0C604.3 0 568.7 0 533.2 0C497.7 0 462.3 0 426.8 0C391.3 0 355.7 0 320 0C284.3 0 248.7 0 213.2 0C177.7 0 142.3 0 106.8 0C71.3 0 35.7 0 17.8 0L0 0Z" fill="#347a58"></path><path d="M0 33L17.8 33.8C35.7 34.7 71.3 36.3 106.8 39.3C142.3 42.3 177.7 46.7 213.2 45.2C248.7 43.7 284.3 36.3 320 35.3C355.7 34.3 391.3 39.7 426.8 41.5C462.3 43.3 497.7 41.7 533.2 40.7C568.7 39.7 604.3 39.3 640 41.3C675.7 43.3 711.3 47.7 746.8 47.5C782.3 47.3 817.7 42.7 853.2 40.5C888.7 38.3 924.3 38.7 942.2 38.8L960 39L960 0L942.2 0C924.3 0 888.7 0 853.2 0C817.7 0 782.3 0 746.8 0C711.3 0 675.7 0 640 0C604.3 0 568.7 0 533.2 0C497.7 0 462.3 0 426.8 0C391.3 0 355.7 0 320 0C284.3 0 248.7 0 213.2 0C177.7 0 142.3 0 106.8 0C71.3 0 35.7 0 17.8 0L0 0Z" fill="#2b694f"></path><path d="M0 18L17.8 17.8C35.7 17.7 71.3 17.3 106.8 19.2C142.3 21 177.7 25 213.2 26.7C248.7 28.3 284.3 27.7 320 27.7C355.7 27.7 391.3 28.3 426.8 25.8C462.3 23.3 497.7 17.7 533.2 14.8C568.7 12 604.3 12 640 13.7C675.7 15.3 711.3 18.7 746.8 22C782.3 25.3 817.7 28.7 853.2 28.3C888.7 28 924.3 24 942.2 22L960 20L960 0L942.2 0C924.3 0 888.7 0 853.2 0C817.7 0 782.3 0 746.8 0C711.3 0 675.7 0 640 0C604.3 0 568.7 0 533.2 0C497.7 0 462.3 0 426.8 0C391.3 0 355.7 0 320 0C284.3 0 248.7 0 213.2 0C177.7 0 142.3 0 106.8 0C71.3 0 35.7 0 17.8 0L0 0Z" fill="#235945"></path></svg>