<svg id="visual" viewBox="0 0 960 350" width="960" height="350" xmlns="http://www.w3.org/2000/svg" xmlns:xlink="http://www.w3.org/1999/xlink" version="1.1"><rect x="0" y="0" width="960" height="350" fill="#fbfdf2"></rect><path d="M0 219L17.8 217C35.7 215 71.3 211 106.8 209.5C142.3 208 177.7 209 213.2 208.8C248.7 208.7 284.3 207.3 320 208.8C355.7 210.3 391.3 214.7 426.8 216.5C462.3 218.3 497.7 217.7 533.2 219C568.7 220.3 604.3 223.7 640 221.5C675.7 219.3 711.3 211.7 746.8 212.3C782.3 213 817.7 222 853.2 224.7C888.7 227.3 924.3 223.7 942.2 221.8L960 220L960 351L942.2 351C924.3 351 888.7 351 853.2 351C817.7 351 782.3 351 746.8 351C711.3 351 675.7 351 640 351C604.3 351 568.7 351 533.2 351C497.7 351 462.3 351 426.8 351C391.3 351 355.7 351 320 351C284.3 351 248.7 351 213.2 351C177.7 351 142.3 351 106.8 351C71.3 351 35.7 351 17.8 351L0 351Z" fill="#6ac076"></path><path d="M0 249L17.8 245C35.7 241 71.3 233 106.8 227.5C142.3 222 177.7 219 213.2 222.5C248.7 226 284.3 236 320 240.2C355.7 244.3 391.3 242.7 426.8 242.7C462.3 242.7 497.7 244.3 533.2 244.8C568.7 245.3 604.3 244.7 640 245.5C675.7 246.3 711.3 248.7 746.8 245.8C782.3 243 817.7 235 853.2 231.2C888.7 227.3 924.3 227.7 942.2 227.8L960 228L960 351L942.2 351C924.3 351 888.7 351 853.2 351C817.7 351 782.3 351 746.8 351C711.3 351 675.7 351 640 351C604.3 351 568.7 351 533.2 351C497.7 351 462.3 351 426.8 351C391.3 351 355.7 351 320 351C284.3 351 248.7 351 213.2 351C177.7 351 142.3 351 106.8 351C71.3 351 35.7 351 17.8 351L0 351Z" fill="#5aae6f"></path><path d="M0 243L17.8 246.5C35.7 250 71.3 257 106.8 259C142.3 261 177.7 258 213.2 255.8C248.7 253.7 284.3 252.3 320 249.3C355.7 246.3 391.3 241.7 426.8 240.8C462.3 240 497.7 243 533.2 246.5C568.7 250 604.3 254 640 254C675.7 254 711.3 250 746.8 251.3C782.3 252.7 817.7 259.3 853.2 257.5C888.7 255.7 924.3 245.3 942.2 240.2L960 235L960 351L942.2 351C924.3 351 888.7 351 853.2 351C817.7 351 782.3 351 746.8 351C711.3 351 675.7 351 640 351C604.3 351 568.7 351 533.2 351C497.7 351 462.3 351 426.8 351C391.3 351 355.7 351 320 351C284.3 351 248.7 351 213.2 351C177.7 351 142.3 351 106.8 351C71.3 351 35.7 351 17.8 351L0 351Z" fill="#4c9c68"></path><path d="M0 273L17.8 275.3C35.7 277.7 71.3 282.3 106.8 281.7C142.3 281 177.7 275 213.2 274.8C248.7 274.7 284.3 280.3 320 282.5C355.7 284.7 391.3 283.3 426.8 281.5C462.3 279.7 497.7 277.3 533.2 273.7C568.7 270 604.3 265 640 266.3C675.7 267.7 711.3 275.3 746.8 276.7C782.3 278 817.7 273 853.2 272C888.7 271 924.3 274 942.2 275.5L960 277L960 351L942.2 351C924.3 351 888.7 351 853.2 351C817.7 351 782.3 351 746.8 351C711.3 351 675.7 351 640 351C604.3 351 568.7 351 533.2 351C497.7 351 462.3 351 426.8 351C391.3 351 355.7 351 320 351C284.3 351 248.7 351 213.2 351C177.7 351 142.3 351 106.8 351C71.3 351 35.7 351 17.8 351L0 351Z" fill="#3f8b60"></path><path d="M0 296L17.8 296.7C35.7 297.3 71.3 298.7 106.8 297.8C142.3 297 177.7 294 213.2 291.5C248.7 289 284.3 287 320 286.5C355.7 286 391.3 287 426.8 290C462.3 293 497.7 298 533.2 297.5C568.7 297 604.3 291 640 288.3C675.7 285.7 711.3 286.3 746.8 289C782.3 291.7 817.7 296.3 853.2 299C888.7 301.7 924.3 302.3 942.2 302.7L960 303L960 351L942.2 351C924.3 351 888.7 351 853.2 351C817.7 351 782.3 351 746.8 351C711.3 351 675.7 351 640 351C604.3 351 568.7 351 533.2 351C497.7 351 462.3 351 426.8 351C391.3 351 355.7 351 320 351C284.3 351 248.7 351 213.2 351C177.7 351 142.3 351 106.8 351C71.3 351 35.7 351 17.8 351L0 351Z" fill="#347a58"></path><path d="M0 315L17.8 314.2C35.7 313.3 71.3 311.7 106.8 308.7C142.3 305.7 177.7 301.3 213.2 302.8C248.7 304.3 284.3 311.7 320 312.7C355.7 313.7 391.3 308.3 426.8 306.5C462.3 304.7 497.7 306.3 533.2 307.3C568.7 308.3 604.3 308.7 640 306.7C675.7 304.7 711.3 300.3 746.8 300.5C782.3 300.7 817.7 305.3 853.2 307.5C888.7 309.7 924.3 309.3 942.2 309.2L960 309L960 351L942.2 351C924.3 351 888.7 351 853.2 351C817.7 351 782.3 351 746.8 351C711.3 351 675.7 351 640 351C604.3 351 568.7 351 533.2 351C497.7 351 462.3 351 426.8 351C391.3 351 355.7 351 320 351C284.3 351 248.7 351 213.2 351C177.7 351 142.3 351 106.8 351C71.3 351 35.7 351 17.8 351L0 351Z" fill="#2b694f"></path><path d="M0 330L17.8 330.2C35.7 330.3 71.3 330.7 106.8 328.8C142.3 327 177.7 323 213.2 321.3C248.7 319.7 284.3 320.3 320 320.3C355.7 320.3 391.3 319.7 426.8 322.2C462.3 324.7 497.7 330.3 533.2 333.2C568.7 336 604.3 336 640 334.3C675.7 332.7 711.3 329.3 746.8 326C782.3 322.7 817.7 319.3 853.2 319.7C888.7 320 924.3 324 942.2 326L960 328L960 351L942.2 351C924.3 351 888.7 351 853.2 351C817.7 351 782.3 351 746.8 351C711.3 351 675.7 351 640 351C604.3 351 568.7 351 533.2 351C497.7 351 462.3 351 426.8 351C391.3 351 355.7 351 320 351C284.3 351 248.7 351 213.2 351C177.7 351 142.3 351 106.8 351C71.3 351 35.7 351 17.8 351L0 351Z" fill="#235945"></path></svg>